<svg id="Layer_1" data-name="Layer 1" xmlns="http://www.w3.org/2000/svg" viewBox="0 0 199.1 100.84"><defs><style>.cls-1{fill:none;stroke:#87d1e6;stroke-miterlimit:10;}.cls-2{fill:#1870b9;}</style></defs><title>boundless</title><path class="cls-1" d="M356,210.52" transform="translate(-47.75 -72.65)"/><path class="cls-2" d="M159,146c20.88-41.79,60.8-47.22,87.88-72.86-9.17,43.11-66.5,42.07-87.5,76.53A36.62,36.62,0,0,0,159,146Z" transform="translate(-47.75 -72.65)"/><path class="cls-2" d="M159.41,151.84c21.41-24.63,44.3-27.31,70.11-44.44-12.39,30.55-46.84,23-70.24,47.86C159.28,154.12,159.41,151.84,159.41,151.84Z" transform="translate(-47.75 -72.65)"/><path class="cls-2" d="M159.08,157.55c19.49-17.49,26.2-10.08,53.65-25.57-10.4,23.62-33.17,11-54,28.46C158.87,159.3,159.08,157.55,159.08,157.55Z" transform="translate(-47.75 -72.65)"/><path class="cls-2" d="M135.64,145.51c-20.89-41.79-60.8-47.21-87.89-72.86,9.18,43.11,66.51,42.07,87.5,76.53A35.71,35.71,0,0,1,135.64,145.51Z" transform="translate(-47.75 -72.65)"/><path class="cls-2" d="M135.2,151.32c-21.41-24.63-44.31-27.3-70.11-44.43,12.39,30.54,46.84,23,70.24,47.86C135.33,153.6,135.2,151.32,135.2,151.32Z" transform="translate(-47.75 -72.65)"/><path class="cls-2" d="M135.53,157C116,139.55,109.32,147,81.88,131.47c10.4,23.61,33.17,11,54,28.46C135.74,158.79,135.53,157,135.53,157Z" transform="translate(-47.75 -72.65)"/><path class="cls-2" d="M157,146.83c-14.59-8.38-3.14-27.31,15.92-38.52-16.91,6.27-37.31,9-37.31,9l.33.66c.7-.1,15.9-3.18,10.32,5.16-8.54,12.74-10.06,25.05-7.74,38.78a41.24,41.24,0,0,1,8.94,11.58,44.44,44.44,0,0,1,9.16-11.58A59.85,59.85,0,0,0,157,146.83Z" transform="translate(-47.75 -72.65)"/></svg>